HIERARCHY
ROOT Hips
{
  OFFSET 54.7686 95.6889 28.8761
  CHANNELS 6 Xposition Yposition Zposition Zrotation Xrotation Yrotation
  JOINT spine
  {
    OFFSET 0 7.96568 0.458067
    CHANNELS 3 Zrotation Xrotation Yrotation
    JOINT spine1
    {
      OFFSET 0 10.2431 0
      CHANNELS 3 Zrotation Xrotation Yrotation
      JOINT spine2
      {
        OFFSET 0 9.81475 0
        CHANNELS 3 Zrotation Xrotation Yrotation
        JOINT Neck
        {
          OFFSET 0 25.1986 1.20138
          CHANNELS 3 Zrotation Xrotation Yrotation
          JOINT Head
          {
            OFFSET 0 7.61315 0
            CHANNELS 3 Zrotation Xrotation Yrotation
            End Site
            {
              OFFSET 0 18.4281 -6.07733
            }
          }
        }
        JOINT RightShoulder
        {
          OFFSET -4.1327 10.5992 -0.575451
          CHANNELS 3 Zrotation Xrotation Yrotation
          JOINT RightArm
          {
            OFFSET 0 13.9018 0
            CHANNELS 3 Zrotation Xrotation Yrotation
            JOINT RightArmRoll
            {
              OFFSET 0 7.01788 0
              CHANNELS 3 Zrotation Xrotation Yrotation
              JOINT RightForeArm
              {
                OFFSET 0 20.4406 0
                CHANNELS 3 Zrotation Xrotation Yrotation
                JOINT RightForeArmRoll
                {
                  OFFSET 0 7.87515 0
                  CHANNELS 3 Zrotation Xrotation Yrotation
                  JOINT RightHand
                  {
                    OFFSET 0 15.8037 0
                    CHANNELS 3 Zrotation Xrotation Yrotation
                    End Site
                    {
                      OFFSET 0 0 0
                    }
                  }
                }
              }
            }
          }
        }
        JOINT LeftShoulder
        {
          OFFSET 4.1327 10.5992 -0.575451
          CHANNELS 3 Zrotation Xrotation Yrotation
          JOINT LeftArm
          {
            OFFSET 0 13.9018 0
            CHANNELS 3 Zrotation Xrotation Yrotation
            JOINT LeftArmRoll
            {
              OFFSET 0 7.01788 0
              CHANNELS 3 Zrotation Xrotation Yrotation
              JOINT LeftForeArm
              {
                OFFSET 0 20.4406 0
                CHANNELS 3 Zrotation Xrotation Yrotation
                JOINT LeftForeArmRoll
                {
                  OFFSET 0 7.87515 0
                  CHANNELS 3 Zrotation Xrotation Yrotation
                  JOINT LeftHand
                  {
                    OFFSET 0 15.8037 0
                    CHANNELS 3 Zrotation Xrotation Yrotation
                    End Site
                    {
                      OFFSET 0 0 0
                    }
                  }
                }
              }
            }
          }
        }
      }
    }
  }
  JOINT RightUpLeg
  {
    OFFSET -7.06048 -1.2947 -1.0861
    CHANNELS 3 Zrotation Xrotation Yrotation
    JOINT RightUpLegRoll
    {
      OFFSET 0 18.5308 0
      CHANNELS 3 Zrotation Xrotation Yrotation
      JOINT RightLeg
      {
        OFFSET 0 -22.9476 0
        CHANNELS 3 Zrotation Xrotation Yrotation
        JOINT RightLegRoll
        {
          OFFSET 0 23.0226 0
          CHANNELS 3 Zrotation Xrotation Yrotation
          JOINT RightFoot
          {
            OFFSET 0 19.1625 0
            CHANNELS 3 Zrotation Xrotation Yrotation
            JOINT RightToeBase
            {
              OFFSET 0 16.0188 0
              CHANNELS 3 Zrotation Xrotation Yrotation
              End Site
              {
                OFFSET 0.00678979 7.75781 -0.894207
              }
            }
          }
        }
      }
    }
  }
  JOINT LeftUpLeg
  {
    OFFSET 7.06048 -1.2947 -1.0861
    CHANNELS 3 Zrotation Xrotation Yrotation
    JOINT LeftUpLegRoll
    {
      OFFSET 0 18.5309 0
      CHANNELS 3 Zrotation Xrotation Yrotation
      JOINT LeftLeg
      {
        OFFSET 0 22.9475 0
        CHANNELS 3 Zrotation Xrotation Yrotation
        JOINT LeftLegRoll
        {
          OFFSET 0 23.2355 0
          CHANNELS 3 Zrotation Xrotation Yrotation
          JOINT LeftFoot
          {
            OFFSET 0 18.9496 0
            CHANNELS 3 Zrotation Xrotation Yrotation
            JOINT LeftToeBase
            {
              OFFSET 0 16.0188 0
              CHANNELS 3 Zrotation Xrotation Yrotation
              End Site
              {
                OFFSET -0.0304289 7.75781 -0.894207
              }
            }
          }
        }
      }
    }
  }
}
MOTION
Frames: 13
Frame Time: 0.00208333
51.3745 56.7188 -11.9129 1.13568 -6.40945 7.54286 0.0953037 1.46443 -0.265545 0.201259 6.93123 -0.546741 0.208545 8.57627 -0.551121 0.725282 3.24951 -2.08059 -0.679423 5.1244 -2.01926 66.1041 -2.57006 -2.25494 115.368 34.4949 -12.9653 -9.82194e-006 2.61409e-006 -4.12326e-006 14.4501 41.1712 -7.14941 -2.09709e-006 -1.88005e-006 -3.00612 8.02889 -4.95086 0.697449 -67.2098 -2.25299 2.18615 -114.789 35.0569 14.4041 -3.4381e-006 3.55406e-006 -9.77131e-007 -15.1559 40.9941 6.86346 6.30897e-006 1.91131e-006 3.0048 -8.02888 -4.95085 -0.697448 128.486 73.8251 49.2934 180 -1.52564e-005 178.994 -145.592 81.4367 146.017 -4.11128e-006 -4.01492e-006 1.27504 -9.13261 61.442 16.0897 8.13655 25.2335 -3.48479 -154.904 78.5492 -22.6706 4.43636e-006 -5.0348e-005 -1.22092 31.364 -81.89 30.4708 -3.98429e-006 -1.802e-007 -1.44794 9.49557 60.4802 -15.6179 -8.13649 25.2327 3.47296 
51.3686 56.7167 -11.9432 1.13787 -6.41113 7.54229 0.0954156 1.46477 -0.266851 0.201622 6.9319 -0.549382 0.209141 8.57695 -0.5538 0.709899 3.24717 -2.07273 -0.672013 5.13194 -2.0137 66.0793 -2.56419 -2.24964 115.394 34.4787 -12.9753 -9.82194e-006 2.61409e-006 -4.12326e-006 14.4484 41.1861 -7.15299 -2.09709e-006 -1.88005e-006 -3.00612 8.02889 -4.95086 0.697449 -67.2113 -2.25574 2.18771 -114.786 35.052 14.4057 -3.4381e-006 3.55406e-006 -9.77131e-007 -15.1591 40.9971 6.86586 6.30897e-006 1.91131e-006 3.0048 -8.02888 -4.95085 -0.697448 128.482 73.8263 49.2962 180 -1.52564e-005 178.994 -145.601 81.4321 146.023 -4.11128e-006 -4.01492e-006 1.27645 -9.13629 61.4445 16.0914 8.13655 25.2335 -3.48479 -154.908 78.5405 -22.6737 4.43636e-006 -5.0348e-005 -1.22031 31.3466 -81.888 30.4573 -3.98429e-006 -1.802e-007 -1.44559 9.46973 60.4707 -15.618 -8.13649 25.2327 3.47296 
51.3671 56.7121 -11.9215 1.13957 -6.41272 7.54111 0.0956637 1.46499 -0.268146 0.202264 6.93234 -0.552022 0.210031 8.57738 -0.556486 0.692474 3.24652 -2.06427 -0.663086 5.13819 -2.00783 66.053 -2.55698 -2.24349 115.422 34.4615 -12.9848 -9.82194e-006 2.61409e-006 -4.12326e-006 14.446 41.2014 -7.15649 -2.09709e-006 -1.88005e-006 -3.00612 8.02889 -4.95086 0.697449 -67.2144 -2.25802 2.18917 -114.782 35.0471 14.406 -3.4381e-006 3.55406e-006 -9.77131e-007 -15.1625 40.9997 6.86824 6.30897e-006 1.91131e-006 3.0048 -8.02888 -4.95085 -0.697448 128.481 73.8282 49.298 180 -1.52564e-005 178.995 -145.612 81.4275 146.032 -4.11128e-006 -4.01492e-006 1.27788 -9.14018 61.447 16.0931 8.13655 25.2335 -3.48479 -154.907 78.531 -22.6824 4.43636e-006 -5.0348e-005 -1.21958 31.3282 -81.8861 30.4429 -3.98429e-006 -1.802e-007 -1.44302 9.44198 60.4605 -15.6181 -8.13649 25.2327 3.47296 
51.364 56.7161 -11.9365 1.14093 -6.41424 7.53952 0.0960071 1.46513 -0.269434 0.203102 6.9326 -0.554662 0.211125 8.57764 -0.559175 0.673617 3.24705 -2.0554 -0.653098 5.14354 -2.00173 66.0255 -2.54882 -2.23675 115.451 34.4436 -12.994 -9.82194e-006 2.61409e-006 -4.12326e-006 14.443 41.2169 -7.15993 -2.09709e-006 -1.88005e-006 -3.00612 8.02889 -4.95086 0.697449 -67.2186 -2.25996 2.19055 -114.775 35.0423 14.4053 -3.4381e-006 3.55406e-006 -9.77131e-007 -15.166 41.002 6.87061 6.30897e-006 1.91131e-006 3.0048 -8.02888 -4.95085 -0.697448 128.48 73.8304 49.2991 180 -1.52564e-005 178.995 -145.624 81.423 146.042 -4.11128e-006 -4.01492e-006 1.27933 -9.14423 61.4496 16.0949 8.13655 25.2335 -3.48479 -154.903 78.5211 -22.695 4.43636e-006 -5.0348e-005 -1.21878 31.3088 -81.8843 30.4277 -3.98429e-006 -1.802e-007 -1.44031 9.41289 60.4499 -15.6182 -8.13649 25.2327 3.47296 
51.3643 56.7196 -11.9257 1.1421 -6.41572 7.53769 0.0964049 1.46521 -0.270717 0.204051 6.93276 -0.557302 0.212337 8.5778 -0.561867 0.653943 3.24825 -2.04629 -0.642503 5.14836 -1.9955 65.9974 -2.54012 -2.22966 115.48 34.4253 -13.003 -9.82194e-006 2.61409e-006 -4.12326e-006 14.4398 41.2326 -7.16333 -2.09709e-006 -1.88005e-006 -3.00612 8.02889 -4.95086 0.697449 -67.2234 -2.26171 2.19188 -114.768 35.0375 14.404 -3.4381e-006 3.55406e-006 -9.77131e-007 -15.1696 41.0041 6.87299 6.30897e-006 1.91131e-006 3.0048 -8.02888 -4.95085 -0.697448 128.48 73.833 49.2998 180 -1.52564e-005 178.995 -145.638 81.4184 146.053 -4.11128e-006 -4.01492e-006 1.28079 -9.14836 61.4522 16.0966 8.13655 25.2335 -3.48479 -154.896 78.5109 -22.7099 4.43636e-006 -5.0348e-005 -1.21792 31.2889 -81.8825 30.4123 -3.98429e-006 -1.802e-007 -1.43752 9.38304 60.439 -15.6183 -8.13649 25.2327 3.47296 
51.3681 56.7183 -11.9315 1.14322 -6.41719 7.53579 0.0968163 1.46529 -0.271999 0.205027 6.9329 -0.559941 0.213579 8.57795 -0.56456 0.634064 3.24961 -2.03712 -0.631758 5.15306 -1.98924 65.9691 -2.53129 -2.22249 115.509 34.4069 -13.0119 -9.82194e-006 2.61409e-006 -4.12326e-006 14.4364 41.2484 -7.16673 -2.09709e-006 -1.88005e-006 -3.00612 8.02889 -4.95086 0.697449 -67.2284 -2.26342 2.19321 -114.76 35.0327 14.4025 -3.4381e-006 3.55406e-006 -9.77131e-007 -15.1731 41.0062 6.87536 6.30897e-006 1.91131e-006 3.0048 -8.02888 -4.95085 -0.697448 128.479 73.8356 49.3005 180 -1.52564e-005 178.995 -145.651 81.4139 146.064 -4.11128e-006 -4.01492e-006 1.28225 -9.15251 61.4548 16.0984 8.13655 25.2335 -3.48479 -154.888 78.5006 -22.7253 4.43636e-006 -5.0348e-005 -1.21705 31.269 -81.8808 30.3967 -3.98429e-006 -1.802e-007 -1.43471 9.35299 60.428 -15.6184 -8.13649 25.2327 3.47296 
51.3637 56.7113 -11.9276 1.14444 -6.41868 7.53402 0.0972005 1.46538 -0.273284 0.205948 6.93309 -0.562581 0.214761 8.57813 -0.567251 0.614593 3.25065 -2.02807 -0.621317 5.15802 -1.98305 65.9412 -2.52273 -2.21549 115.538 34.3888 -13.021 -9.82194e-006 2.61409e-006 -4.12326e-006 14.4332 41.264 -7.17015 -2.09709e-006 -1.88005e-006 -3.00612 8.02889 -4.95086 0.697449 -67.233 -2.26522 2.19456 -114.753 35.0278 14.4014 -3.4381e-006 3.55406e-006 -9.77131e-007 -15.1767 41.0083 6.87773 6.30897e-006 1.91131e-006 3.0048 -8.02888 -4.95085 -0.697448 128.479 73.8381 49.3013 180 -1.52564e-005 178.995 -145.664 81.4093 146.074 -4.11128e-006 -4.01492e-006 1.28371 -9.15661 61.4573 16.1001 8.13655 25.2335 -3.48479 -154.882 78.4905 -22.7395 4.43636e-006 -5.0348e-005 -1.21621 31.2493 -81.879 30.3813 -3.98429e-006 -1.802e-007 -1.43193 9.32333 60.4172 -15.6186 -8.13649 25.2327 3.47296 
51.4092 56.7388 -12.0849 1.1459 -6.42021 7.53254 0.0975167 1.46554 -0.274574 0.20673 6.9334 -0.565221 0.215798 8.57845 -0.569939 0.596145 3.25083 -2.01932 -0.611637 5.16362 -1.97701 65.914 -2.51484 -2.20891 115.566 34.3711 -13.0302 -9.82194e-006 2.61409e-006 -4.12326e-006 14.4304 41.2795 -7.17361 -2.09709e-006 -1.88005e-006 -3.00612 8.02889 -4.95086 0.697449 -67.2369 -2.26726 2.19596 -114.747 35.023 14.4009 -3.4381e-006 3.55406e-006 -9.77131e-007 -15.1802 41.0107 6.88011 6.30897e-006 1.91131e-006 3.0048 -8.02888 -4.95085 -0.697448 128.478 73.8403 49.3026 180 -1.52564e-005 178.995 -145.676 81.4047 146.084 -4.11128e-006 -4.01492e-006 1.28515 -9.16062 61.4599 16.1019 8.13655 25.2335 -3.48479 -154.878 78.4807 -22.7509 4.43636e-006 -5.0348e-005 -1.21542 31.2302 -81.8772 30.3664 -3.98429e-006 -1.802e-007 -1.42927 9.29462 60.4067 -15.6187 -8.13649 25.2327 3.47296 
51.4033 56.7397 -12.0573 1.14775 -6.42183 7.53155 0.097724 1.4658 -0.275872 0.207288 6.9339 -0.567861 0.216599 8.57895 -0.572623 0.579333 3.24968 -2.01104 -0.603173 5.17026 -1.97123 65.8881 -2.50803 -2.20302 115.594 34.3542 -13.0399 -9.82194e-006 2.61409e-006 -4.12326e-006 14.4282 41.2947 -7.17715 -2.09709e-006 -1.88005e-006 -3.00612 8.02889 -4.95086 0.697449 -67.2395 -2.26968 2.19745 -114.743 35.0181 14.4016 -3.4381e-006 3.55406e-006 -9.77131e-007 -15.1835 41.0134 6.8825 6.30897e-006 1.91131e-006 3.0048 -8.02888 -4.95085 -0.697448 128.476 73.8419 49.3047 180 -1.52564e-005 178.995 -145.687 81.4001 146.092 -4.11128e-006 -4.01492e-006 1.28658 -9.16444 61.4624 16.1036 8.13655 25.2335 -3.48479 -154.879 78.4715 -22.7579 4.43636e-006 -5.0348e-005 -1.21473 31.2121 -81.8753 30.3524 -3.98429e-006 -1.802e-007 -1.42676 9.26744 60.3968 -15.6188 -8.13649 25.2327 3.47296 
51.4012 56.7183 -12.079 1.15013 -6.42354 7.53122 0.0977816 1.46619 -0.277183 0.20754 6.93468 -0.570502 0.217079 8.57973 -0.575299 0.564772 3.24666 -2.00342 -0.596382 5.17832 -1.9658 65.8639 -2.50269 -2.19807 115.62 34.3383 -13.05 -9.82194e-006 2.61409e-006 -4.12326e-006 14.4269 41.3094 -7.18079 -2.09709e-006 -1.88005e-006 -3.00612 8.02889 -4.95086 0.697449 -67.2404 -2.27261 2.19905 -114.741 35.0131 14.4038 -3.4381e-006 3.55406e-006 -9.77131e-007 -15.1867 41.0166 6.8849 6.30897e-006 1.91131e-006 3.0048 -8.02888 -4.95085 -0.697448 128.472 73.8428 49.3078 180 -1.52564e-005 178.995 -145.695 81.3955 146.098 -4.11128e-006 -4.01492e-006 1.28797 -9.16804 61.4649 16.1053 8.13655 25.2335 -3.48479 -154.886 78.4631 -22.7586 4.43636e-006 -5.0348e-005 -1.21417 31.1954 -81.8733 30.3393 -3.98429e-006 -1.802e-007 -1.42449 9.24237 60.3875 -15.6188 -8.13649 25.2327 3.47296 
51.4111 56.7286 -12.105 1.15318 -6.4254 7.53172 0.0976487 1.46674 -0.278509 0.207402 6.93579 -0.573143 0.217149 8.58084 -0.577967 0.553076 3.2413 -1.99663 -0.591719 5.18819 -1.96081 65.842 -2.49924 -2.19431 115.644 34.3239 -13.0608 -9.82194e-006 2.61409e-006 -4.12326e-006 14.4267 41.3236 -7.18455 -2.09709e-006 -1.88005e-006 -3.00612 8.02889 -4.95086 0.697449 -67.2391 -2.27622 2.20082 -114.743 35.0081 14.4079 -3.4381e-006 3.55406e-006 -9.77131e-007 -15.1896 41.0203 6.88731 6.30897e-006 1.91131e-006 3.0048 -8.02888 -4.95085 -0.697448 128.467 73.8429 49.3123 180 -1.52564e-005 178.996 -145.7 81.3908 146.101 -4.11128e-006 -4.01492e-006 1.28933 -9.17134 61.4674 16.107 8.13655 25.2335 -3.48479 -154.9 78.4556 -22.7516 4.43636e-006 -5.0348e-005 -1.21378 31.1803 -81.8712 30.3276 -3.98429e-006 -1.802e-007 -1.42251 9.21997 60.3792 -15.6189 -8.13649 25.2327 3.47296 
51.3797 56.7034 -11.9585 1.15706 -6.42741 7.53325 0.0972845 1.46751 -0.279853 0.20679 6.93733 -0.575784 0.21672 8.58237 -0.580624 0.54486 3.23306 -1.99085 -0.58964 5.20026 -1.95636 65.8227 -2.49807 -2.192 115.667 34.311 -13.0724 -9.82194e-006 2.61409e-006 -4.12326e-006 14.4278 41.3371 -7.18846 -2.09709e-006 -1.88005e-006 -3.00612 8.02889 -4.95086 0.697449 -67.2351 -2.28062 2.20276 -114.748 35.003 14.4144 -3.4381e-006 3.55406e-006 -9.77131e-007 -15.1923 41.0248 6.88975 6.30897e-006 1.91131e-006 3.0048 -8.02888 -4.95085 -0.697448 128.459 73.8418 49.3184 180 -1.52564e-005 178.996 -145.702 81.3861 146.101 -4.11128e-006 -4.01492e-006 1.29064 -9.17427 61.4698 16.1086 8.13655 25.2335 -3.48479 -154.924 78.4493 -22.7351 4.43636e-006 -5.0348e-005 -1.21359 31.1673 -81.8689 30.3176 -3.98429e-006 -1.802e-007 -1.42089 9.20083 60.3719 -15.6189 -8.13649 25.2327 3.47296 
51.3939 56.71 -12.0116 1.16191 -6.42961 7.53598 0.0966482 1.46852 -0.28122 0.20562 6.93934 -0.578427 0.215706 8.58439 -0.583269 0.540738 3.22146 -1.98626 -0.590602 5.21492 -1.95255 65.8066 -2.49959 -2.1914 115.687 34.3001 -13.085 -9.82194e-006 2.61409e-006 -4.12326e-006 14.4304 41.3498 -7.19255 -2.09709e-006 -1.88005e-006 -3.00612 8.02889 -4.95086 0.697449 -67.2279 -2.28598 2.20493 -114.758 34.9977 14.4236 -3.4381e-006 3.55406e-006 -9.77131e-007 -15.1946 41.0301 6.8922 6.30897e-006 1.91131e-006 3.0048 -8.02888 -4.95085 -0.697448 128.449 73.8394 49.3265 180 -1.52564e-005 178.996 -145.7 81.3814 146.098 -4.11128e-006 -4.01492e-006 1.2919 -9.17677 61.4721 16.1102 8.13655 25.2335 -3.48479 -154.958 78.4445 -22.7074 4.43636e-006 -5.0348e-005 -1.21364 31.1568 -81.8665 30.3095 -3.98429e-006 -1.802e-007 -1.41968 9.18551 60.366 -15.6189 -8.13649 25.2327 3.47296 
